<?xml version="1.0" encoding="UTF-8" standalone="no"?>
<svg
   version="1.1"
   viewBox="0 0 793.7008 154.57428"
   fill="none"
   stroke="none"
   stroke-linecap="square"
   stroke-miterlimit="10"
   id="svg1147"
   sodipodi:docname="BANIÈRE_transparent.svg"
   width="21cm"
   height="4.0897779cm"
   inkscape:version="1.1.2 (0a00cf5339, 2022-02-04)"
   inkscape:export-filename="/home/cedc/Documents/Work/2023_Denergium/MarCom/Logos/BANIÈRE_document_txt.png"
   inkscape:export-xdpi="300"
   inkscape:export-ydpi="300"
   xmlns:inkscape="http://www.inkscape.org/namespaces/inkscape"
   xmlns:sodipodi="http://sodipodi.sourceforge.net/DTD/sodipodi-0.dtd"
   xmlns="http://www.w3.org/2000/svg"
   xmlns:svg="http://www.w3.org/2000/svg">
  <defs
     id="defs1151" />
  <sodipodi:namedview
     id="namedview1149"
     pagecolor="#202729"
     bordercolor="#666666"
     borderopacity="1.0"
     inkscape:pageshadow="2"
     inkscape:pageopacity="0"
     inkscape:pagecheckerboard="false"
     showgrid="false"
     inkscape:zoom="0.9503769"
     inkscape:cx="325.66027"
     inkscape:cy="201.49901"
     inkscape:window-width="1920"
     inkscape:window-height="1016"
     inkscape:window-x="0"
     inkscape:window-y="0"
     inkscape:window-maximized="1"
     inkscape:current-layer="svg1147"
     fit-margin-top="1"
     fit-margin-left="0"
     fit-margin-right="0"
     fit-margin-bottom="1"
     inkscape:snap-bbox="false"
     inkscape:snap-bbox-edge-midpoints="true"
     inkscape:bbox-nodes="true"
     inkscape:snap-bbox-midpoints="true"
     inkscape:bbox-paths="true"
     units="cm"
     height="2.08978cm"
     inkscape:document-units="cm" />
  <clipPath
     id="p1.0">
    <path
       d="M 0,0 H 960 V 540 H 0 Z"
       clip-rule="nonzero"
       id="path1094" />
  </clipPath>
  <rect
     style="fill:#63d297;fill-opacity:1;stroke-width:1.1372;stroke-dasharray:2.27442, 1.1372"
     id="rect7085"
     width="793.70081"
     height="7.494391"
     x="0"
     y="79.715912"
     inkscape:export-filename="/home/cedc/Documents/Work/2023_Denergium/MarCom/Logos/BANIÈRE_document_txt.png"
     inkscape:export-xdpi="300"
     inkscape:export-ydpi="300" />
  <g
     aria-label="DENERGIUM"
     id="text3030"
     style="font-size:10.5833px;line-height:1.25;-inkscape-font-specification:'sans-serif, Normal';letter-spacing:0px;word-spacing:0px;stroke-width:0.264583"
     transform="matrix(3.7795276,0,0,3.7795276,220.0148,12.657719)"
     inkscape:export-filename="/home/cedc/Documents/Work/2023_Denergium/MarCom/Logos/BANIÈRE_document_txt.png"
     inkscape:export-xdpi="300"
     inkscape:export-ydpi="300">
    <path
       d="m 22.403862,10.587966 q 0,0.836081 -0.291041,1.545162 -0.285749,0.703789 -0.809622,1.222371 -0.523874,0.51329 -1.264705,0.80433 -0.735539,0.28575 -1.63512,0.28575 H 15.408301 V 6.7356448 h 2.995073 q 0.899581,0 1.63512,0.2910407 0.740831,0.2910408 1.264705,0.8043308 0.523873,0.51329 0.809622,1.2223711 0.291041,0.7037894 0.291041,1.5345786 z m -1.830911,0 q 0,-0.571498 -0.148166,-1.0318719 Q 20.276618,9.0957206 19.996161,8.7782216 19.720995,8.455431 19.31883,8.2860982 18.916664,8.1114737 18.403374,8.1114737 H 17.207462 V 13.06975 h 1.195912 q 0.51329,0 0.915456,-0.169333 0.402165,-0.174625 0.677331,-0.492124 0.280457,-0.32279 0.428624,-0.783164 0.148166,-0.460373 0.148166,-1.037163 z"
       style="font-weight:900;font-family:Lato;-inkscape-font-specification:'Lato, Heavy';fill:#ffffff"
       id="path30304" />
    <path
       d="m 28.425756,6.7356448 v 1.3758289 h -3.164407 v 1.799161 h 2.423576 v 1.3229123 h -2.423576 v 1.836203 h 3.164407 v 1.375829 H 23.462188 V 6.7356448 Z"
       style="font-weight:900;font-family:Lato;-inkscape-font-specification:'Lato, Heavy';fill:#63d297;fill-opacity:1"
       id="path30301" />
    <path
       d="m 30.468333,6.7356448 q 0.116416,0 0.195791,0.010583 0.07937,0.010583 0.142874,0.042333 0.0635,0.026458 0.121708,0.079375 0.05821,0.052916 0.132291,0.1428746 l 3.661822,4.6301936 q -0.02117,-0.222249 -0.03175,-0.428623 -0.01058,-0.211666 -0.01058,-0.396874 V 6.7356448 h 1.576912 V 14.445579 H 35.32607 q -0.206374,0 -0.349249,-0.0635 -0.137583,-0.06879 -0.275166,-0.232833 L 31.066289,9.5560941 q 0.01587,0.2010827 0.02646,0.3968738 0.01058,0.1904991 0.01058,0.3598321 v 4.132779 h -1.57691 V 6.7356448 Z"
       style="font-weight:900;font-family:Lato;-inkscape-font-specification:'Lato, Heavy';fill:#ffffff"
       id="path30298" />
    <path
       d="m 42.713194,6.7356448 v 1.3758289 h -3.164407 v 1.799161 h 2.423576 v 1.3229123 h -2.423576 v 1.836203 h 3.164407 v 1.375829 H 37.749626 V 6.7356448 Z"
       style="font-weight:900;font-family:Lato;-inkscape-font-specification:'Lato, Heavy';fill:#63d297;fill-opacity:1"
       id="path30295" />
    <path
       d="m 45.602434,11.593379 v 2.8522 H 43.813856 V 6.7356448 h 2.508242 q 0.836081,0 1.423454,0.1746244 0.592665,0.1693328 0.96308,0.4762485 0.375708,0.3069157 0.54504,0.724956 0.169333,0.4180404 0.169333,0.9101638 0,0.3757071 -0.100541,0.7090811 -0.100541,0.3333744 -0.301624,0.6191234 -0.195791,0.280457 -0.486832,0.502706 -0.285749,0.22225 -0.661456,0.365124 0.179916,0.08996 0.333374,0.227541 0.153458,0.132291 0.275166,0.317499 l 1.640411,2.682867 h -1.619245 q -0.44979,0 -0.645581,-0.338666 l -1.280579,-2.238368 q -0.08996,-0.142874 -0.201083,-0.206374 -0.111125,-0.06879 -0.317499,-0.06879 z m 0,-1.232954 h 0.719664 q 0.365124,0 0.619123,-0.08996 0.259291,-0.09525 0.423332,-0.259291 0.164042,-0.1640411 0.238125,-0.3809988 0.07408,-0.2222493 0.07408,-0.4762484 0,-0.5079984 -0.333374,-0.7937475 -0.328082,-0.2857491 -1.021289,-0.2857491 h -0.719664 z"
       style="font-weight:900;font-family:Lato;-inkscape-font-specification:'Lato, Heavy';fill:#ffffff"
       id="path30292" />
    <path
       d="m 57.080013,13.704748 q -0.592665,0.433915 -1.264705,0.629706 -0.666748,0.195791 -1.396995,0.195791 -0.952497,0 -1.735661,-0.296332 -0.777873,-0.301624 -1.333496,-0.825498 -0.555623,-0.529165 -0.857247,-1.248829 -0.301625,-0.724956 -0.301625,-1.57162 0,-0.8625391 0.28575,-1.5822034 0.285749,-0.7249561 0.814914,-1.2488294 0.534456,-0.5238733 1.285871,-0.8149141 0.756705,-0.2910407 1.688036,-0.2910407 0.48154,0 0.904872,0.079375 0.423332,0.079375 0.777872,0.2169577 0.359833,0.1375829 0.656165,0.3280823 0.296332,0.1904994 0.529165,0.4127487 l -0.518582,0.7884558 q -0.121708,0.1852077 -0.317499,0.2275409 -0.190499,0.042333 -0.412748,-0.09525 -0.211666,-0.1269996 -0.402166,-0.2169576 -0.185207,-0.09525 -0.380998,-0.1534579 -0.195792,-0.058208 -0.412749,-0.084666 -0.216958,-0.026458 -0.486832,-0.026458 -0.502707,0 -0.904872,0.1799161 -0.402165,0.1746244 -0.687915,0.4974151 -0.280457,0.3227906 -0.433915,0.7778725 -0.153458,0.449791 -0.153458,1.005414 0,0.613831 0.169333,1.09008 0.169333,0.476248 0.476249,0.80433 0.312207,0.328083 0.740831,0.502707 0.433915,0.169333 0.957788,0.169333 0.322791,0 0.582082,-0.0635 0.264582,-0.0635 0.51329,-0.169333 V 11.752129 H 54.69877 q -0.169333,0 -0.264582,-0.08996 -0.09525,-0.08996 -0.09525,-0.227541 v -0.984247 h 2.741075 v 3.254365 z"
       style="font-weight:900;font-family:Lato;-inkscape-font-specification:'Lato, Heavy';fill:#63d297;fill-opacity:1"
       id="path30289" />
    <path
       d="M 60.080375,14.445579 H 58.281214 V 6.7356448 h 1.799161 z"
       style="font-weight:900;font-family:Lato;-inkscape-font-specification:'Lato, Heavy';fill:#ffffff"
       id="path30286" />
    <path
       d="m 64.78993,13.032708 q 0.359833,0 0.64029,-0.116416 0.285749,-0.121708 0.48154,-0.343957 0.195791,-0.22225 0.296333,-0.539749 0.105833,-0.32279 0.105833,-0.730247 V 6.7356448 h 1.788577 v 4.5666942 q 0,0.709081 -0.232832,1.301745 -0.227541,0.592665 -0.656165,1.021289 -0.428624,0.428623 -1.042455,0.666748 -0.613831,0.238124 -1.381121,0.238124 -0.77258,0 -1.386412,-0.238124 -0.613831,-0.238125 -1.042455,-0.666748 -0.428624,-0.428624 -0.656164,-1.021289 -0.227541,-0.592664 -0.227541,-1.301745 V 6.7356448 h 1.788577 v 4.5614022 q 0,0.407457 0.100542,0.730248 0.105833,0.317499 0.301624,0.54504 0.195791,0.222249 0.476248,0.343957 0.285749,0.116416 0.645581,0.116416 z"
       style="font-weight:900;font-family:Lato;-inkscape-font-specification:'Lato, Heavy';fill:#63d297;fill-opacity:1"
       id="path30283" />
    <path
       d="m 73.441766,10.92134 q 0.105833,0.201082 0.201083,0.41804 0.100541,0.216958 0.190499,0.444499 0.08996,-0.232833 0.185208,-0.455082 0.100541,-0.222249 0.211666,-0.423332 l 1.979077,-3.8946544 q 0.05292,-0.1005414 0.105833,-0.1534579 0.05821,-0.058208 0.127,-0.084666 0.06879,-0.026458 0.153458,-0.03175 0.08996,-0.00529 0.206374,-0.00529 h 1.365246 v 7.7099343 h -1.576912 v -4.434403 q 0,-0.3227907 0.03175,-0.6984978 l -2.042577,3.9634458 q -0.09525,0.185208 -0.259291,0.280457 -0.158749,0.09525 -0.365124,0.09525 H 73.71164 q -0.206374,0 -0.370415,-0.09525 -0.15875,-0.09525 -0.253999,-0.280457 l -2.05316,-3.9687375 q 0.02117,0.1852077 0.03175,0.3704155 0.01058,0.1799161 0.01058,0.333374 v 4.434403 H 69.499487 V 6.7356448 h 1.365246 q 0.116416,0 0.201083,0.00529 0.08996,0.00529 0.158749,0.03175 0.06879,0.026458 0.121708,0.084666 0.05821,0.052917 0.111125,0.1534579 l 1.984368,3.9105293 z"
       style="font-weight:900;font-family:Lato;-inkscape-font-specification:'Lato, Heavy';fill:#ffffff"
       id="path30280" />
  </g>
  <g
     aria-label="Digital Energy Optimum"
     id="text24701"
     style="font-weight:600;font-size:20px;line-height:1.25;font-family:Lato;-inkscape-font-specification:'Lato, Semi-Bold';font-variant-ligatures:no-common-ligatures;letter-spacing:0px;word-spacing:0px"
     transform="translate(-83.149658,-81.374405)"
     inkscape:export-filename="/home/cedc/Documents/Work/2023_Denergium/MarCom/Logos/BANIÈRE_document_txt.png"
     inkscape:export-xdpi="300"
     inkscape:export-ydpi="300">
    <path
       d="m 387.88534,187.32342 q 0,1.6 -0.52,2.93 -0.52,1.32 -1.47,2.27 -0.94,0.95 -2.27,1.48 -1.32,0.52 -2.94,0.52 h -5.44 v -14.4 h 5.44 q 1.62,0 2.94,0.53 1.33,0.52 2.27,1.47 0.95,0.95 1.47,2.28 0.52,1.32 0.52,2.92 z m -2.39,0 q 0,-1.24 -0.34,-2.23 -0.33,-0.99 -0.96,-1.67 -0.62,-0.68 -1.51,-1.04 -0.89,-0.37 -2,-0.37 h -3.09 v 10.62 h 3.09 q 1.11,0 2,-0.36 0.89,-0.36 1.51,-1.04 0.63,-0.69 0.96,-1.67 0.34,-0.99 0.34,-2.24 z"
       style="fill:#63d297;fill-opacity:1"
       id="path74127" />
    <path
       d="m 392.11532,184.32342 v 10.2 h -2.15 v -10.2 z m 0.36,-3.08 q 0,0.29 -0.12,0.55 -0.11,0.26 -0.31,0.46 -0.2,0.19 -0.47,0.31 -0.26,0.11 -0.56,0.11 -0.29,0 -0.55,-0.11 -0.25,-0.12 -0.44,-0.31 -0.19,-0.2 -0.31,-0.46 -0.11,-0.26 -0.11,-0.55 0,-0.3 0.11,-0.56 0.12,-0.26 0.31,-0.45 0.19,-0.2 0.44,-0.31 0.26,-0.12 0.55,-0.12 0.3,0 0.56,0.12 0.27,0.11 0.47,0.31 0.2,0.19 0.31,0.45 0.12,0.26 0.12,0.56 z"
       style="fill:#ffffff"
       id="path74129" />
    <path
       d="m 398.46531,184.14342 q 0.66,0 1.23,0.15 0.58,0.14 1.06,0.4 h 2.86 v 0.8 q 0,0.4 -0.48,0.49 l -1.02,0.17 q 0.26,0.6 0.26,1.29 0,0.75 -0.3,1.36 -0.29,0.61 -0.81,1.04 -0.52,0.43 -1.24,0.66 -0.72,0.23 -1.56,0.23 -0.32,0 -0.63,-0.03 -0.3,-0.04 -0.59,-0.1 -0.29,0.17 -0.43,0.36 -0.14,0.19 -0.14,0.39 0,0.33 0.29,0.49 0.29,0.16 0.76,0.23 0.48,0.07 1.09,0.09 0.61,0.02 1.24,0.07 0.63,0.05 1.24,0.17 0.61,0.11 1.08,0.38 0.48,0.26 0.77,0.71 0.29,0.45 0.29,1.17 0,0.66 -0.33,1.29 -0.33,0.63 -0.96,1.12 -0.62,0.49 -1.52,0.78 -0.9,0.3 -2.05,0.3 -1.14,0 -1.99,-0.22 -0.84,-0.22 -1.41,-0.6 -0.56,-0.37 -0.84,-0.86 -0.27,-0.49 -0.27,-1.02 0,-0.72 0.45,-1.23 0.46,-0.51 1.24,-0.8 -0.42,-0.2 -0.68,-0.55 -0.25,-0.35 -0.25,-0.92 0,-0.22 0.08,-0.46 0.08,-0.24 0.24,-0.47 0.17,-0.24 0.41,-0.45 0.25,-0.21 0.58,-0.38 -0.76,-0.42 -1.2,-1.12 -0.43,-0.7 -0.43,-1.63 0,-0.76 0.29,-1.37 0.3,-0.61 0.83,-1.04 0.53,-0.43 1.25,-0.66 0.73,-0.23 1.59,-0.23 z m 2.99,10.88 q 0,-0.33 -0.2,-0.53 -0.19,-0.21 -0.52,-0.33 -0.33,-0.12 -0.78,-0.17 -0.44,-0.05 -0.93,-0.08 -0.49,-0.03 -1.01,-0.05 -0.52,-0.03 -1,-0.1 -0.48,0.25 -0.78,0.6 -0.3,0.35 -0.3,0.81 0,0.3 0.15,0.56 0.16,0.26 0.48,0.45 0.33,0.19 0.83,0.3 0.51,0.11 1.22,0.11 1.42,0 2.13,-0.44 0.71,-0.44 0.71,-1.13 z m -2.99,-5.69 q 1,0 1.5,-0.51 0.5,-0.51 0.5,-1.33 0,-0.84 -0.5,-1.33 -0.5,-0.49 -1.5,-0.49 -0.99,0 -1.5,0.49 -0.5,0.49 -0.5,1.33 0,0.4 0.13,0.74 0.13,0.34 0.38,0.59 0.25,0.24 0.62,0.38 0.38,0.13 0.87,0.13 z"
       style="fill:#ffffff"
       id="path74131" />
    <path
       d="m 407.55531,184.32342 v 10.2 h -2.15 v -10.2 z m 0.36,-3.08 q 0,0.29 -0.12,0.55 -0.11,0.26 -0.31,0.46 -0.2,0.19 -0.47,0.31 -0.26,0.11 -0.56,0.11 -0.29,0 -0.55,-0.11 -0.25,-0.12 -0.44,-0.31 -0.19,-0.2 -0.31,-0.46 -0.11,-0.26 -0.11,-0.55 0,-0.3 0.11,-0.56 0.12,-0.26 0.31,-0.45 0.19,-0.2 0.44,-0.31 0.26,-0.12 0.55,-0.12 0.3,0 0.56,0.12 0.27,0.11 0.47,0.31 0.2,0.19 0.31,0.45 0.12,0.26 0.12,0.56 z"
       style="fill:#ffffff"
       id="path74133" />
    <path
       d="m 413.5353,194.68342 q -1.27,0 -1.96,-0.71 -0.68,-0.72 -0.68,-2.02 v -5.94 h -1.12 q -0.18,0 -0.31,-0.11 -0.13,-0.12 -0.13,-0.35 v -0.87 l 1.65,-0.24 0.47,-2.95 q 0.05,-0.17 0.17,-0.27 0.12,-0.11 0.32,-0.11 h 1.1 v 3.35 h 2.83 v 1.55 h -2.83 v 5.79 q 0,0.55 0.27,0.84 0.27,0.29 0.72,0.29 0.25,0 0.43,-0.06 0.18,-0.07 0.31,-0.14 0.13,-0.08 0.22,-0.14 0.1,-0.07 0.19,-0.07 0.18,0 0.29,0.2 l 0.64,1.05 q -0.5,0.44 -1.18,0.68 -0.68,0.23 -1.4,0.23 z"
       style="fill:#ffffff"
       id="path74135" />
    <path
       d="m 424.15529,194.52342 q -0.31,0 -0.47,-0.09 -0.16,-0.1 -0.27,-0.39 l -0.21,-0.83 q -0.39,0.36 -0.77,0.63 -0.38,0.27 -0.79,0.46 -0.4,0.19 -0.87,0.28 -0.46,0.1 -1.02,0.1 -0.62,0 -1.16,-0.17 -0.53,-0.17 -0.92,-0.51 -0.39,-0.35 -0.62,-0.86 -0.22,-0.51 -0.22,-1.2 0,-0.59 0.31,-1.15 0.32,-0.56 1.04,-1 0.73,-0.45 1.91,-0.74 1.19,-0.29 2.93,-0.33 v -0.68 q 0,-1.1 -0.47,-1.64 -0.47,-0.54 -1.38,-0.54 -0.62,0 -1.04,0.16 -0.42,0.15 -0.73,0.33 -0.31,0.18 -0.55,0.34 -0.24,0.15 -0.51,0.15 -0.22,0 -0.38,-0.11 -0.15,-0.12 -0.25,-0.29 l -0.39,-0.7 q 1.73,-1.61 4.12,-1.61 0.88,0 1.56,0.29 0.69,0.28 1.15,0.8 0.47,0.52 0.71,1.24 0.25,0.71 0.25,1.58 v 6.48 z m -3.75,-1.34 q 0.84,0 1.44,-0.31 0.61,-0.32 1.18,-0.91 v -1.9 q -1.15,0.05 -1.94,0.19 -0.79,0.14 -1.28,0.37 -0.49,0.23 -0.71,0.54 -0.21,0.3 -0.21,0.67 0,0.36 0.11,0.62 0.12,0.25 0.32,0.42 0.21,0.16 0.48,0.24 0.28,0.07 0.61,0.07 z"
       style="fill:#ffffff"
       id="path74137" />
    <path
       d="m 429.81526,179.72342 v 14.8 h -2.15 v -14.8 z"
       style="fill:#ffffff"
       id="path74139" />
    <path
       d="m 446.8352,180.12342 v 1.89 h -6.63 v 4.34 h 5.3 v 1.83 h -5.3 v 4.45 h 6.64 l -0.01,1.89 h -8.98 v -14.4 z"
       style="fill:#63d297;fill-opacity:1"
       id="path74141" />
    <path
       d="m 448.73515,194.52342 v -10.2 h 1.3 q 0.44,0 0.56,0.41 l 0.15,0.95 q 0.32,-0.34 0.67,-0.62 0.36,-0.28 0.76,-0.48 0.4,-0.2 0.85,-0.31 0.46,-0.11 0.99,-0.11 0.84,0 1.47,0.28 0.64,0.28 1.07,0.79 0.44,0.51 0.66,1.23 0.22,0.71 0.22,1.57 v 6.49 h -2.14 v -6.49 q 0,-1.03 -0.48,-1.6 -0.47,-0.57 -1.44,-0.57 -0.72,0 -1.34,0.33 -0.61,0.33 -1.15,0.9 v 7.43 z"
       style="fill:#63d297;fill-opacity:1"
       id="path74143" />
    <path
       d="m 464.22513,184.16342 q 0.94,0 1.74,0.31 0.8,0.3 1.38,0.89 0.58,0.59 0.9,1.45 0.33,0.85 0.33,1.94 0,0.5 -0.11,0.67 -0.11,0.17 -0.4,0.17 h -6.55 q 0.04,0.87 0.27,1.51 0.23,0.63 0.61,1.05 0.39,0.42 0.92,0.63 0.54,0.2 1.2,0.2 0.63,0 1.09,-0.14 0.46,-0.15 0.8,-0.32 0.34,-0.18 0.58,-0.32 0.24,-0.15 0.44,-0.15 0.26,0 0.4,0.2 l 0.61,0.79 q -0.38,0.45 -0.86,0.76 -0.48,0.31 -1.02,0.51 -0.54,0.19 -1.11,0.27 -0.57,0.09 -1.11,0.09 -1.06,0 -1.97,-0.35 -0.9,-0.36 -1.57,-1.05 -0.66,-0.69 -1.04,-1.71 -0.37,-1.02 -0.37,-2.35 0,-1.06 0.33,-1.98 0.34,-0.92 0.96,-1.6 0.63,-0.68 1.52,-1.07 0.9,-0.4 2.03,-0.4 z m 0.04,1.56 q -1.17,0 -1.84,0.67 -0.67,0.67 -0.85,1.88 h 5.07 q 0,-0.54 -0.16,-1 -0.15,-0.47 -0.45,-0.81 -0.3,-0.35 -0.75,-0.54 -0.44,-0.2 -1.02,-0.2 z"
       style="fill:#63d297;fill-opacity:1"
       id="path74145" />
    <path
       d="m 470.57509,194.52342 v -10.2 h 1.25 q 0.34,0 0.47,0.13 0.13,0.12 0.18,0.43 l 0.12,1.33 q 0.49,-0.97 1.17,-1.52 0.68,-0.56 1.63,-0.56 0.33,0 0.62,0.08 0.29,0.07 0.52,0.22 l -0.15,1.62 q -0.04,0.17 -0.13,0.24 -0.08,0.06 -0.22,0.06 -0.15,0 -0.43,-0.05 -0.28,-0.06 -0.59,-0.06 -0.45,0 -0.8,0.13 -0.35,0.13 -0.62,0.38 -0.27,0.25 -0.48,0.61 -0.21,0.36 -0.39,0.82 v 6.34 z"
       style="fill:#63d297;fill-opacity:1"
       id="path74147" />
    <path
       d="m 481.38504,184.14342 q 0.66,0 1.23,0.15 0.58,0.14 1.06,0.4 h 2.86 v 0.8 q 0,0.4 -0.48,0.49 l -1.02,0.17 q 0.26,0.6 0.26,1.29 0,0.75 -0.3,1.36 -0.29,0.61 -0.81,1.04 -0.52,0.43 -1.24,0.66 -0.72,0.23 -1.56,0.23 -0.32,0 -0.63,-0.03 -0.3,-0.04 -0.59,-0.1 -0.29,0.17 -0.43,0.36 -0.14,0.19 -0.14,0.39 0,0.33 0.29,0.49 0.29,0.16 0.76,0.23 0.48,0.07 1.09,0.09 0.61,0.02 1.24,0.07 0.63,0.05 1.24,0.17 0.61,0.11 1.08,0.38 0.48,0.26 0.77,0.71 0.29,0.45 0.29,1.17 0,0.66 -0.33,1.29 -0.33,0.63 -0.96,1.12 -0.62,0.49 -1.52,0.78 -0.9,0.3 -2.05,0.3 -1.14,0 -1.99,-0.22 -0.84,-0.22 -1.41,-0.6 -0.56,-0.37 -0.84,-0.86 -0.27,-0.49 -0.27,-1.02 0,-0.72 0.45,-1.23 0.46,-0.51 1.24,-0.8 -0.42,-0.2 -0.68,-0.55 -0.25,-0.35 -0.25,-0.92 0,-0.22 0.08,-0.46 0.08,-0.24 0.24,-0.47 0.17,-0.24 0.41,-0.45 0.25,-0.21 0.58,-0.38 -0.76,-0.42 -1.2,-1.12 -0.43,-0.7 -0.43,-1.63 0,-0.76 0.29,-1.37 0.3,-0.61 0.83,-1.04 0.53,-0.43 1.25,-0.66 0.73,-0.23 1.59,-0.23 z m 2.99,10.88 q 0,-0.33 -0.2,-0.53 -0.19,-0.21 -0.52,-0.33 -0.33,-0.12 -0.78,-0.17 -0.44,-0.05 -0.93,-0.08 -0.49,-0.03 -1.01,-0.05 -0.52,-0.03 -1,-0.1 -0.48,0.25 -0.78,0.6 -0.3,0.35 -0.3,0.81 0,0.3 0.15,0.56 0.16,0.26 0.48,0.45 0.33,0.19 0.83,0.3 0.51,0.11 1.22,0.11 1.42,0 2.13,-0.44 0.71,-0.44 0.71,-1.13 z m -2.99,-5.69 q 1,0 1.5,-0.51 0.5,-0.51 0.5,-1.33 0,-0.84 -0.5,-1.33 -0.5,-0.49 -1.5,-0.49 -0.99,0 -1.5,0.49 -0.5,0.49 -0.5,1.33 0,0.4 0.13,0.74 0.13,0.34 0.38,0.59 0.25,0.24 0.62,0.38 0.38,0.13 0.87,0.13 z"
       style="fill:#ffffff"
       id="path74149" />
    <path
       d="m 491.66504,197.42342 q -0.11,0.23 -0.27,0.36 -0.15,0.13 -0.47,0.13 h -1.59 l 1.88,-4.08 -4.16,-9.51 h 1.87 q 0.27,0 0.41,0.13 0.15,0.12 0.22,0.29 l 2.43,5.79 q 0.18,0.5 0.3,1 0.08,-0.26 0.16,-0.51 0.09,-0.25 0.19,-0.5 l 2.33,-5.78 q 0.07,-0.18 0.23,-0.3 0.17,-0.12 0.37,-0.12 h 1.72 z"
       style="fill:#ffffff"
       id="path74151" />
    <path
       d="m 517.09497,187.32342 q 0,1.6 -0.52,2.95 -0.52,1.35 -1.47,2.33 -0.94,0.97 -2.27,1.52 -1.32,0.55 -2.94,0.55 -1.61,0 -2.94,-0.55 -1.32,-0.55 -2.27,-1.52 -0.95,-0.98 -1.47,-2.33 -0.52,-1.35 -0.52,-2.95 0,-1.6 0.52,-2.95 0.52,-1.35 1.47,-2.33 0.95,-0.98 2.27,-1.53 1.33,-0.55 2.94,-0.55 1.62,0 2.94,0.55 1.33,0.55 2.27,1.53 0.95,0.98 1.47,2.33 0.52,1.35 0.52,2.95 z m -2.39,0 q 0,-1.24 -0.34,-2.23 -0.33,-0.99 -0.96,-1.68 -0.62,-0.69 -1.51,-1.06 -0.89,-0.37 -2,-0.37 -1.1,0 -1.99,0.37 -0.89,0.37 -1.52,1.06 -0.63,0.69 -0.97,1.68 -0.34,0.99 -0.34,2.23 0,1.25 0.34,2.24 0.34,0.99 0.97,1.68 0.63,0.68 1.52,1.05 0.89,0.36 1.99,0.36 1.11,0 2,-0.36 0.89,-0.37 1.51,-1.05 0.63,-0.69 0.96,-1.68 0.34,-0.99 0.34,-2.24 z"
       style="fill:#ffffff"
       id="path74153" />
    <path
       d="m 519.07492,197.91342 v -13.59 h 1.3 q 0.44,0 0.56,0.41 l 0.17,1.07 q 0.32,-0.37 0.68,-0.68 0.36,-0.31 0.77,-0.53 0.42,-0.22 0.89,-0.34 0.48,-0.12 1.02,-0.12 0.86,0 1.56,0.35 0.7,0.34 1.2,1 0.5,0.66 0.77,1.64 0.28,0.97 0.28,2.23 0,1.13 -0.31,2.11 -0.3,0.97 -0.87,1.69 -0.57,0.71 -1.38,1.12 -0.81,0.4 -1.83,0.4 -0.9,0 -1.53,-0.28 -0.63,-0.29 -1.13,-0.8 v 4.32 z m 4.67,-12.05 q -0.83,0 -1.42,0.36 -0.59,0.35 -1.1,1.01 v 4.73 q 0.45,0.58 0.98,0.82 0.54,0.23 1.19,0.23 1.26,0 1.96,-0.92 0.71,-0.92 0.71,-2.74 0,-0.94 -0.16,-1.6 -0.16,-0.67 -0.46,-1.09 -0.3,-0.42 -0.73,-0.61 -0.43,-0.19 -0.97,-0.19 z"
       style="fill:#ffffff"
       id="path74155" />
    <path
       d="m 533.49486,194.68342 q -1.27,0 -1.96,-0.71 -0.68,-0.72 -0.68,-2.02 v -5.94 h -1.12 q -0.18,0 -0.31,-0.11 -0.13,-0.12 -0.13,-0.35 v -0.87 l 1.65,-0.24 0.47,-2.95 q 0.05,-0.17 0.17,-0.27 0.12,-0.11 0.32,-0.11 h 1.1 v 3.35 h 2.83 v 1.55 h -2.83 v 5.79 q 0,0.55 0.27,0.84 0.27,0.29 0.72,0.29 0.25,0 0.43,-0.06 0.18,-0.07 0.31,-0.14 0.13,-0.08 0.22,-0.14 0.1,-0.07 0.19,-0.07 0.18,0 0.29,0.2 l 0.64,1.05 q -0.5,0.44 -1.18,0.68 -0.68,0.23 -1.4,0.23 z"
       style="fill:#ffffff"
       id="path74157" />
    <path
       d="m 539.77485,184.32342 v 10.2 h -2.15 v -10.2 z m 0.36,-3.08 q 0,0.29 -0.12,0.55 -0.11,0.26 -0.31,0.46 -0.2,0.19 -0.47,0.31 -0.26,0.11 -0.56,0.11 -0.29,0 -0.55,-0.11 -0.25,-0.12 -0.44,-0.31 -0.19,-0.2 -0.31,-0.46 -0.11,-0.26 -0.11,-0.55 0,-0.3 0.11,-0.56 0.12,-0.26 0.31,-0.45 0.19,-0.2 0.44,-0.31 0.26,-0.12 0.55,-0.12 0.3,0 0.56,0.12 0.27,0.11 0.47,0.31 0.2,0.19 0.31,0.45 0.12,0.26 0.12,0.56 z"
       style="fill:#63d297;fill-opacity:1"
       id="path74159" />
    <path
       d="m 542.48484,194.52342 v -10.2 h 1.3 q 0.44,0 0.56,0.41 l 0.14,0.89 q 0.28,-0.32 0.58,-0.58 0.3,-0.27 0.64,-0.46 0.35,-0.2 0.74,-0.31 0.4,-0.11 0.86,-0.11 0.49,0 0.9,0.14 0.41,0.14 0.72,0.4 0.32,0.26 0.55,0.63 0.23,0.37 0.38,0.83 0.23,-0.53 0.58,-0.91 0.35,-0.38 0.78,-0.62 0.43,-0.24 0.91,-0.35 0.49,-0.12 0.99,-0.12 0.82,0 1.46,0.26 0.65,0.26 1.09,0.76 0.45,0.49 0.68,1.21 0.23,0.72 0.23,1.64 v 6.49 h -2.15 v -6.49 q 0,-1.08 -0.47,-1.62 -0.46,-0.55 -1.37,-0.55 -0.41,0 -0.77,0.14 -0.36,0.14 -0.63,0.41 -0.27,0.27 -0.43,0.68 -0.15,0.4 -0.15,0.94 v 6.49 h -2.15 v -6.49 q 0,-1.12 -0.45,-1.64 -0.45,-0.53 -1.32,-0.53 -0.6,0 -1.11,0.31 -0.51,0.3 -0.94,0.83 v 7.52 z"
       style="fill:#ffffff"
       id="path74161" />
    <path
       d="m 561.14484,184.32342 v 6.49 q 0,1.03 0.47,1.6 0.48,0.57 1.45,0.57 0.71,0 1.32,-0.32 0.62,-0.33 1.16,-0.9 v -7.44 h 2.15 v 10.2 h -1.3 q -0.43,0 -0.55,-0.41 l -0.16,-0.95 q -0.65,0.68 -1.44,1.1 -0.78,0.42 -1.82,0.42 -0.84,0 -1.48,-0.28 -0.64,-0.28 -1.08,-0.79 -0.43,-0.51 -0.65,-1.22 -0.22,-0.72 -0.22,-1.58 v -6.49 z"
       style="fill:#63d297;fill-opacity:1"
       id="path74163" />
    <path
       d="m 570.31482,194.52342 v -10.2 h 1.3 q 0.44,0 0.56,0.41 l 0.14,0.89 q 0.28,-0.32 0.58,-0.58 0.3,-0.27 0.64,-0.46 0.35,-0.2 0.74,-0.31 0.4,-0.11 0.86,-0.11 0.49,0 0.9,0.14 0.41,0.14 0.72,0.4 0.32,0.26 0.55,0.63 0.23,0.37 0.38,0.83 0.23,-0.53 0.58,-0.91 0.35,-0.38 0.78,-0.62 0.43,-0.24 0.91,-0.35 0.49,-0.12 0.99,-0.12 0.82,0 1.46,0.26 0.65,0.26 1.09,0.76 0.45,0.49 0.68,1.21 0.23,0.72 0.23,1.64 v 6.49 h -2.15 v -6.49 q 0,-1.08 -0.47,-1.62 -0.46,-0.55 -1.37,-0.55 -0.41,0 -0.77,0.14 -0.36,0.14 -0.63,0.41 -0.27,0.27 -0.43,0.68 -0.15,0.4 -0.15,0.94 v 6.49 h -2.15 v -6.49 q 0,-1.12 -0.45,-1.64 -0.45,-0.53 -1.32,-0.53 -0.6,0 -1.11,0.31 -0.51,0.3 -0.94,0.83 v 7.52 z"
       style="fill:#63d297;fill-opacity:1"
       id="path74165" />
  </g>
</svg>
